# xmcd
#
# Track frame offsets:
# 150
# 15343
# 27282
# 44485
# 56050
# 80082
# 95420
# 109034
# 122160
# 136064
#
# Disc length: 2062 seconds
#
#
# Revision: 0
# Processed by: cddbd v1.5PL3 Copyright (c) Steve Scherf et al.
# Submitted via: FreeRIP 2.60 
#
DISCID=7d080c0a
DTITLE=The Funk'en Flames - STAX of ATLANTIC MOTOWN (one)
DYEAR=2003
DGENRE=Blues
TTITLE0=Ninety-Nine And A Half
TTITLE1=634-5789
TTITLE2=He Don't Love You
TTITLE3=Soul Sister
TTITLE4=Mustang Sally
TTITLE5=My Girl
TTITLE6=Knock On Wood
TTITLE7=Messin With The Kid
TTITLE8=Soul Man
TTITLE9=Diggin' On James Brown
EXTD=bluesfestradio.com
EXTT0=
EXTT1=
EXTT2=
EXTT3=
EXTT4=
EXTT5=
EXTT6=
EXTT7=
EXTT8=
EXTT9=
PLAYORDER=
